<svg width="24" height="24" viewBox="0 0 24 24" fill="none" xmlns="http://www.w3.org/2000/svg">
  <path fill-rule="evenodd" clip-rule="evenodd" d="M7.74828 19.6959H11.9046C12.3721 19.6959 12.8395 19.6966 13.3072 19.6972C14.2433 19.6985 15.1803 19.6999 16.1198 19.6959C17.0041 19.6959 17.4109 19.2832 17.4109 18.393V13.5293C17.4109 13.2865 17.3993 13.1773 17.4481 13.1288C17.4976 13.0796 17.6095 13.093 17.859 13.093H20.6003C20.96 13.0989 21.2783 13.0105 21.5259 12.7275C21.9327 12.2677 21.8973 11.6722 21.4198 11.1357C18.5725 7.92294 15.7193 4.71603 12.8661 1.50912L12.8655 1.50848C12.2642 0.830506 11.5508 0.830506 10.9495 1.50848C8.09611 4.7156 5.24272 7.92273 2.38932 11.124C2.04149 11.5189 1.87642 11.9375 2.10634 12.4445C2.33037 12.9397 2.74894 13.0989 3.26185 13.093C3.63437 13.0907 4.00783 13.0921 4.38149 13.0935C4.94214 13.0956 5.50322 13.0977 6.06218 13.0871C6.33927 13.0812 6.40412 13.1697 6.40412 13.435C6.39527 14.6643 6.39638 15.8971 6.39749 17.1281C6.39786 17.5382 6.39822 17.9481 6.39822 18.3577C6.39822 19.3009 6.79322 19.6959 7.74828 19.6959ZM10.477 22.9961C10.9552 22.9967 11.4332 22.9974 11.9105 22.9974C12.3682 22.9974 12.8265 22.998 13.285 22.9987C14.2027 23 15.1213 23.0013 16.0373 22.9974C16.1729 22.9974 16.3144 22.9974 16.45 22.9797C17.2636 22.8854 17.6762 21.9539 17.2164 21.2818C16.9924 20.9576 16.6799 20.7984 16.2908 20.7984C14.3377 20.7944 12.3871 20.7958 10.4358 20.7971C9.45973 20.7977 8.48349 20.7984 7.50659 20.7984C7.40047 20.7984 7.28846 20.8161 7.18824 20.8455C6.51616 21.0342 6.19191 21.836 6.54564 22.4373C6.78145 22.8441 7.14697 22.9974 7.60681 22.9974C8.56209 22.9934 9.52 22.9948 10.477 22.9961Z" fill="#008000"/>
</svg>
